<svg width="29" height="27" xmlns="http://www.w3.org/2000/svg" viewBox="0 0 29 27">
 <g>
  <path transform="rotate(-180 14.500000953674316,13.5) "
   d="m16.53932,18.04691l-0.7931,-2.62927c0.23242,-0.19312 0.45058,-0.39975 0.6565,-0.62087l2.7738,0.75122c0.29257,
  -0.40361 0.54436,-0.83233 0.76965,-1.27746l-2.06429,-1.89253c0.09888,-0.27809 0.18451,-0.561 0.24568,-0.85261l2.78196,
  -0.66046c0.02039,-0.24333 0.03976,-0.48762 0.03976,-0.73674s-0.02039,-0.49244 -0.03976,-0.73577l-2.78196,-0.66046c-0.06218,
  -0.2916 -0.14781,-0.57452 -0.24568,-0.85261l2.06531,-1.89253c-0.22631,-0.44417 -0.4781,-0.87385 -0.77067,-1.27746l-2.7738,
  0.75025c-0.2049,-0.22015 -0.42407,-0.42679 -0.6565,-0.62087l0.7931,-2.6283c-0.42611,-0.27616 -0.87975,-0.51562 -1.34969,
  -0.72901l-1.99803,1.95626c-0.29257,-0.09366 -0.59227,-0.1738 -0.90013,-0.2327l-0.69625,-2.63603c-0.25791,-0.01835 -0.5148,
  -0.03766 -0.77781,-0.03766s-0.5199,0.01931 -0.77679,0.03766l-0.69727,2.63603c-0.30786,0.0589 -0.60655,0.13904 -0.90013,
  0.2327l-1.99803,-1.95626c-0.46893,0.21629 -0.92154,0.45479 -1.34765,0.73191l0.7931,2.6283c-0.23242,0.19312 -0.4516,
  0.40071 -0.65548,0.6199l-2.77482,-0.75122c-0.29257,0.40361 -0.54436,0.83329 -0.76965,1.27843l2.06531,1.89253c-0.09786,
  0.27809 -0.18349,0.561 -0.24568,0.85261l-2.78298,0.66046c-0.01937,0.24333 -0.03976,0.48762 -0.03976,0.73577s0.02039,
  0.49244 0.03976,0.73674l2.78298,0.66046c0.06218,0.2916 0.14781,0.57452 0.24568,0.85261l-2.06531,1.89253c0.22529,
  0.44417 0.47708,0.87385 0.76965,1.27746l2.77482,-0.75122c0.20388,0.22112 0.42305,0.42679 0.65548,0.62087l-0.7931,
  2.62927c0.42611,0.27616 0.87975,0.51465 1.34867,0.72901l1.99803,-1.95626c0.29359,0.09366 0.59227,0.17477 0.90013,
  0.2327l0.69727,2.63506c0.25689,0.01931 0.5148,0.03766 0.77781,0.03766s0.5199,-0.01931 0.77781,-0.03766l0.69625,
  -2.63506c0.30786,-0.0589 0.60757,-0.14001 0.90013,-0.2327l1.99803,1.95626c0.46791,-0.21629 0.92154,-0.45479 1.34765,
  -0.73094zm-5.7209,-4.63574c-1.91342,0 -3.46496,-1.46961 -3.46496,-3.282s1.55153,-3.28103 3.46496,-3.28103s3.46394,
  1.46864 3.46394,3.28103s-1.55051,3.282 -3.46394,3.282zm15.79262,6.86043c0.01937,-0.52817 -0.06116,-1.066 -0.23446,
  -1.59707l1.26814,-1.71197c-0.19165,-0.33795 -0.40776,-0.65852 -0.65344,-0.95013l-2.16318,0.42968c-0.43631,-0.35147 -0.93276,
  -0.62569 -1.46387,-0.82171l-0.62286,-2.00744c-0.39349,-0.06566 -0.79208,-0.10139 -1.19576,-0.10235l-0.9929,1.86936c-0.28441,
  0.05214 -0.56883,0.12359 -0.84814,0.22498c-0.26199,0.09463 -0.50664,0.21243 -0.74111,0.34085l-2.04493,-0.79081c-0.30276,
  0.25298 -0.57902,0.52624 -0.82878,0.82267l0.9246,1.90026c-0.26403,0.47796 -0.44548,0.99261 -0.52907,1.53044l-1.92769,
  1.02351c0.01937,0.37464 0.07747,0.74929 0.16718,1.1249l2.14483,0.50114c0.23548,0.50596 0.5515,0.95882 0.93377,1.34505l-0.35883,
  2.06441c0.32621,0.22208 0.67281,0.41327 1.03266,0.57935l1.74828,-1.27456c0.5464,0.13615 1.11829,0.18829 1.69425,0.14484l1.48018,
  1.55168c0.20388,-0.05504 0.40674,-0.11394 0.60757,-0.18636c0.1784,-0.06373 0.3466,-0.13904 0.5148,-0.21532l0.03772,
  -2.09048c0.46383,-0.32733 0.85936,-0.72129 1.17435,-1.16449l2.20293,-0.12939c0.15495,-0.34664 0.28441,-0.7068 0.37514,
  -1.07662l-1.70139,-1.33443zm-4.24378,1.93792c-1.22431,0.44223 -2.59439,-0.13904 -3.06229,-1.2987s0.14577,-2.45836 1.37008,
  -2.90156c1.22431,-0.44223 2.59642,0.13904 3.06433,1.2987c0.46689,1.15966 -0.14781,2.45836 -1.37212,2.90156z"/>
 </g>
</svg>