<svg xmlns="http://www.w3.org/2000/svg"
 width="90.000000pt" height="90.000000pt" viewBox="0 0 90.000000 90.000000">
<g transform="translate(0.000000,90.000000) scale(0.100000,-0.100000)">
<path d="M90 481 l0 -300 55 -16 c182 -53 177 -52 273 -26 48 13 102 26 120
29 l34 4 -32 33 -32 33 -66 -19 c-37 -10 -70 -19 -75 -19 -4 0 -6 104 -5 232
l3 231 65 19 c36 10 68 18 73 18 4 0 7 -63 7 -140 l0 -140 30 0 30 0 0 140 c0
152 -2 147 60 131 19 -6 54 -15 78 -21 l42 -11 0 -178 0 -177 30 -29 30 -29 0
237 0 236 -37 10 c-140 36 -205 51 -229 51 -16 0 -70 -12 -121 -26 l-93 -27
-93 27 c-51 14 -105 26 -120 26 l-27 0 0 -299z m140 201 l65 -19 3 -231 c1
-128 -1 -232 -5 -232 -5 0 -37 8 -73 18 l-65 19 -3 231 c-1 128 1 232 5 232 5
0 37 -8 73 -18z"/>
<path d="M654 307 c-3 -9 -15 -17 -25 -17 -11 0 -19 -7 -19 -16 0 -9 -7 -22
-15 -28 -13 -9 -1 -26 75 -101 l90 -90 42 43 43 42 -92 92 c-74 73 -93 89 -99
75z"/>
</g>
</svg>
